<?xml version="1.0" standalone="no"?>
<!DOCTYPE svg PUBLIC "-//W3C//DTD SVG 20010904//EN"
 "http://www.w3.org/TR/2001/REC-SVG-20010904/DTD/svg10.dtd">
<svg version="1.0" xmlns="http://www.w3.org/2000/svg"
 width="70.000000pt" height="70.000000pt" viewBox="0 0 70.000000 70.000000"
 preserveAspectRatio="xMidYMid meet">
<metadata>
Created by potrace 1.14, written by Peter Selinger 2001-2017
</metadata>
<g transform="translate(0.000000,70.000000) scale(0.100000,-0.100000)"
fill="#000000" stroke="none">
<path d="M21 674 c-20 -26 -21 -38 -21 -330 l0 -303 26 -20 c26 -20 38 -21
330 -21 l303 0 20 26 c20 26 21 38 21 330 l0 303 -26 20 c-26 20 -38 21 -330
21 l-303 0 -20 -26z m339 -294 c65 6 88 1 137 -30 59 -37 88 -35 81 5 -6 30 7
33 22 6 40 -75 -102 -118 -214 -64 -34 16 -38 16 -72 0 -82 -40 -196 -29 -214
19 -7 17 -6 32 0 45 15 27 28 24 22 -6 -7 -39 21 -41 75 -7 63 39 73 42 108
35 17 -3 41 -5 55 -3z"/>
</g>
</svg>
