<svg width="58" height="57" fill="none" xmlns="http://www.w3.org/2000/svg"><path d="M29.4 8.77V.4a.4.4 0 0 0-.7-.29.4.4 0 0 0-.11.29v8.36h.82ZM18.74 11.62c.23-.15.47-.28.7-.41l-4.19-7.23a.4.4 0 0 0-.7.4l4.19 7.24ZM4.3 14.19a.4.4 0 0 0 .15.55l7.24 4.2c.13-.24.26-.48.4-.7l-7.23-4.2a.41.41 0 0 0-.56.15ZM43.56 3.48a.41.41 0 0 0-.56.15l-4.42 7.6.71.4 4.42-7.59a.4.4 0 0 0-.15-.56ZM53.95 14.57a.4.4 0 0 0 .05-.68.41.41 0 0 0-.46-.03l-7.62 4.4.41.71 7.62-4.4ZM9.21 28.5v-.4H.41a.41.41 0 0 0-.29.69c.08.08.18.12.29.12h8.81v-.41ZM57.6 28.1h-8.82v.8h8.81a.41.41 0 0 0 .41-.4.4.4 0 0 0-.4-.4ZM53.55 42.26l-7.24-4.2c-.13.24-.26.48-.4.7l7.23 4.2a.41.41 0 0 0 .45-.03.4.4 0 0 0-.04-.67ZM4.04 42.43a.41.41 0 1 0 .42.7l7.62-4.39c-.15-.23-.28-.47-.41-.71l-7.63 4.4ZM39.26 45.38c-.23.15-.47.28-.71.41l4.2 7.23a.41.41 0 0 0 .74-.1.4.4 0 0 0-.04-.3l-4.19-7.24ZM14.28 52.96a.4.4 0 0 0 .46.6c.1-.03.2-.1.25-.19l4.43-7.6-.71-.4-4.43 7.59ZM28.59 48.23v8.36a.4.4 0 0 0 .7.29.4.4 0 0 0 .12-.29v-8.36h-.82ZM42.88 21.2a.61.61 0 1 0-.61-1.07l-11.64 6.72a2.31 2.31 0 0 0-3.28 0l-8.3-4.83a.62.62 0 0 0-.91.69c.04.16.14.3.28.37l8.34 4.83a2.3 2.3 0 0 0 2.92 2.8 2.32 2.32 0 0 0 1.56-2.8l11.64-6.71ZM29 29.6a1.1 1.1 0 0 1-1.07-1.3 1.09 1.09 0 0 1 1.49-.8 1.1 1.1 0 0 1 .67 1.01 1.09 1.09 0 0 1-1.1 1.07v.02Z" fill="#fff"/></svg>
